<svg width="19" height="19" viewBox="0 0 19 19" fill="none" xmlns="http://www.w3.org/2000/svg">
<path fill-rule="evenodd" clip-rule="evenodd" d="M14.6727 8.97465C14.3666 9.53276 13.7725 9.90182 13.0974 9.90182H6.39118L5.40099 11.7022H16.203V13.5025H5.40099C4.03274 13.5025 3.16858 12.0352 3.8257 10.829L5.04093 8.63259L1.80033 1.80033H0V0H2.94354L3.7897 1.80033H17.1122C17.7963 1.80033 18.2284 2.53847 17.8953 3.13258L14.6727 8.97465ZM15.5815 3.60061H4.64446L6.77785 8.10144H13.097L15.5815 3.60061ZM5.40143 14.4027C4.41124 14.4027 3.6101 15.2128 3.6101 16.203C3.6101 17.1932 4.41124 18.0033 5.40143 18.0033C6.39161 18.0033 7.20176 17.1932 7.20176 16.203C7.20176 15.2128 6.39161 14.4027 5.40143 14.4027ZM12.6104 16.203C12.6104 15.2128 13.4115 14.4027 14.4017 14.4027C15.3919 14.4027 16.202 15.2128 16.202 16.203C16.202 17.1932 15.3919 18.0033 14.4017 18.0033C13.4115 18.0033 12.6104 17.1932 12.6104 16.203Z" fill="#555555" fill-opacity="0.6"/>
</svg>
