<svg width="17" height="18" viewBox="0 0 17 18" fill="none" xmlns="http://www.w3.org/2000/svg">
<path fill-rule="evenodd" clip-rule="evenodd" d="M3.13216 8.05263L8.05321 0L12.9743 8.05263H3.13216ZM9.78045 6.2632L8.05361 3.43583L6.31782 6.2632H9.78045ZM12.9746 9.84219C10.7467 9.84219 8.94824 11.6406 8.94824 13.8685C8.94824 16.0964 10.7467 17.8948 12.9746 17.8948C15.2025 17.8948 17.0009 16.0964 17.0009 13.8685C17.0009 11.6406 15.2025 9.84219 12.9746 9.84219ZM10.7375 13.8683C10.7375 15.103 11.7396 16.1052 12.9744 16.1052C14.2091 16.1052 15.2112 15.103 15.2112 13.8683C15.2112 12.6336 14.2091 11.6315 12.9744 11.6315C11.7396 11.6315 10.7375 12.6336 10.7375 13.8683ZM0 17.4474H7.1579V10.2895H0V17.4474ZM5.36823 12.079H1.78928V15.658H5.36823V12.079Z" fill="#555555" fill-opacity="0.6"/>
</svg>
