<svg width="61" height="62" viewBox="0 0 61 62" fill="none" xmlns="http://www.w3.org/2000/svg">
<path d="M20.0041 34.8903C21.4779 41.741 23.0882 48.4005 27.1822 54.2686C29.0655 52.5218 30.8668 50.8024 32.6955 49.0829C33.487 50.3657 33.1868 51.2118 32.0132 52.0306C30.5939 53.0131 29.3111 54.1594 27.8919 55.2785C28.1648 55.7152 28.4104 56.07 28.7653 56.6158C30.321 55.1693 31.7948 53.7773 33.3505 52.3035C33.5416 52.9585 33.6781 53.4771 33.8964 54.214C37.8812 48.2641 39.628 41.741 41.02 34.7266C45.3596 36.7736 49.7811 38.3566 53.6295 40.813C59.0609 44.3065 61.0533 49.8744 60.9987 56.2064C60.9987 57.2436 60.371 57.9532 59.4157 58.1716C57.1777 58.7174 54.9396 59.2906 52.647 59.6454C44.2952 60.9828 35.9161 61.9927 27.4279 61.6651C19.3763 61.3649 11.4067 60.2732 3.49157 58.8539C0.516597 58.3353 -0.220318 57.189 0.0526157 54.1867C0.73495 46.7902 4.33768 41.5226 11.2975 38.6295C14.136 37.4559 17.0018 36.1731 20.0041 34.8903Z" fill="#3E396B"/>
<path d="M20.0041 34.8903C21.4779 41.741 23.0882 48.4005 27.1822 54.2686C29.0655 52.5218 30.8668 50.8024 32.6955 49.0829C33.487 50.3657 33.1868 51.2118 32.0132 52.0306C30.5939 53.0131 29.3111 54.1594 27.8919 55.2785C28.1648 55.7152 28.4104 56.07 28.7653 56.6158C30.321 55.1693 31.7948 53.7773 33.3505 52.3035C33.5416 52.9585 33.6781 53.4771 33.8964 54.214C37.8812 48.2641 39.628 41.741 41.02 34.7266C45.3596 36.7736 49.7811 38.3566 53.6295 40.813C59.0609 44.3065 61.0533 49.8744 60.9987 56.2064C60.9987 57.2436 60.371 57.9532 59.4157 58.1716C57.1777 58.7174 54.9396 59.2906 52.647 59.6454C44.2952 60.9828 35.9161 61.9927 27.4279 61.6651C19.3763 61.3649 11.4067 60.2732 3.49157 58.8539C0.516597 58.3353 -0.220318 57.189 0.0526157 54.1867C0.73495 46.7902 4.33768 41.5226 11.2975 38.6295C14.136 37.4559 17.0018 36.1731 20.0041 34.8903Z" fill="#555555"/>
<path d="M31.4126 20.8616C29.9115 20.8616 28.656 20.9161 27.4005 20.8343C27.073 20.807 26.6363 20.3703 26.5271 20.0155C25.9267 17.9412 26.4725 16.0579 27.8372 14.4476C28.6014 13.5469 29.5294 12.81 30.4028 11.9912C31.5218 10.9268 32.3679 9.78044 32.286 8.08825C32.2041 6.2596 31.2216 5.05869 29.3383 5.05869C28.1374 5.05869 26.9092 5.30433 25.7356 5.57726C24.3709 5.90478 23.3065 5.60456 22.8698 4.54011C22.3239 3.28462 22.7333 1.72889 23.9343 1.23761C27.4278 -0.208935 31.0032 -0.509161 34.5241 0.991975C39.2731 3.01169 39.164 9.07081 36.653 11.9912C35.8069 12.9738 34.8243 13.9017 33.8145 14.7205C31.8766 16.3036 30.5938 18.023 31.4126 20.8616Z" fill="#3E396B"/>
<path d="M31.4126 20.8616C29.9115 20.8616 28.656 20.9161 27.4005 20.8343C27.073 20.807 26.6363 20.3703 26.5271 20.0155C25.9267 17.9412 26.4725 16.0579 27.8372 14.4476C28.6014 13.5469 29.5294 12.81 30.4028 11.9912C31.5218 10.9268 32.3679 9.78044 32.286 8.08825C32.2041 6.2596 31.2216 5.05869 29.3383 5.05869C28.1374 5.05869 26.9092 5.30433 25.7356 5.57726C24.3709 5.90478 23.3065 5.60456 22.8698 4.54011C22.3239 3.28462 22.7333 1.72889 23.9343 1.23761C27.4278 -0.208935 31.0032 -0.509161 34.5241 0.991975C39.2731 3.01169 39.164 9.07081 36.653 11.9912C35.8069 12.9738 34.8243 13.9017 33.8145 14.7205C31.8766 16.3036 30.5938 18.023 31.4126 20.8616Z" fill="#555555"/>
<path d="M29.4477 23.5363C31.5766 23.5363 32.8594 24.6553 32.8594 26.5658C32.8594 28.4491 31.5493 29.65 29.5023 29.65C27.428 29.65 26.0087 28.3945 25.9814 26.5112C25.9541 24.6826 27.3188 23.5363 29.4477 23.5363Z" fill="#3E396B"/>
<path d="M29.4477 23.5363C31.5766 23.5363 32.8594 24.6553 32.8594 26.5658C32.8594 28.4491 31.5493 29.65 29.5023 29.65C27.428 29.65 26.0087 28.3945 25.9814 26.5112C25.9541 24.6826 27.3188 23.5363 29.4477 23.5363Z" fill="#555555"/>
<path d="M29.0381 42.5325C29.9934 40.9222 29.0108 40.158 28.0009 39.2846C26.5271 38.0018 26.6363 37.5378 28.5195 36.9101C30.1844 36.3369 31.822 36.4734 33.3777 37.2922C34.0328 37.647 34.2238 38.111 33.6234 38.6841C32.2314 40.0215 30.8395 41.3589 29.4475 42.6963C29.311 42.6144 29.1746 42.5871 29.0381 42.5325Z" fill="#3E396B"/>
<path d="M29.0381 42.5325C29.9934 40.9222 29.0108 40.158 28.0009 39.2846C26.5271 38.0018 26.6363 37.5378 28.5195 36.9101C30.1844 36.3369 31.822 36.4734 33.3777 37.2922C34.0328 37.647 34.2238 38.111 33.6234 38.6841C32.2314 40.0215 30.8395 41.3589 29.4475 42.6963C29.311 42.6144 29.1746 42.5871 29.0381 42.5325Z" fill="#555555"/>
<path d="M32.1225 45.6714C32.8867 47.0361 32.5865 47.8822 31.4402 48.6464C30.212 49.4652 29.1203 50.4477 27.6737 51.5941C28.0558 48.4553 30.7851 47.6638 32.1225 45.6714Z" fill="#3E396B"/>
<path d="M32.1225 45.6714C32.8867 47.0361 32.5865 47.8822 31.4402 48.6464C30.212 49.4652 29.1203 50.4477 27.6737 51.5941C28.0558 48.4553 30.7851 47.6638 32.1225 45.6714Z" fill="#555555"/>
<path d="M28.6289 46.9266C28.3013 44.4156 30.594 43.9517 31.4947 42.3687C32.2316 44.1427 32.2316 44.1427 30.9488 45.1526C30.2392 45.7257 29.475 46.2989 28.6289 46.9266Z" fill="#3E396B"/>
<path d="M28.6289 46.9266C28.3013 44.4156 30.594 43.9517 31.4947 42.3687C32.2316 44.1427 32.2316 44.1427 30.9488 45.1526C30.2392 45.7257 29.475 46.2989 28.6289 46.9266Z" fill="#555555"/>
</svg>
