<svg width="18" height="18" viewBox="0 0 18 18" fill="none" xmlns="http://www.w3.org/2000/svg">
<path d="M12 9H14C14 6.24 11.76 4 9 4V6C10.66 6 12 7.34 12 9Z" fill="#555555" fill-opacity="0.6"/>
<path d="M16 9H18C18 4.03 13.97 0 9 0V2C12.87 2 16 5.13 16 9Z" fill="#555555" fill-opacity="0.6"/>
<path d="M17 12.5C15.75 12.5 14.55 12.3 13.43 11.93C13.33 11.9 13.22 11.88 13.12 11.88C12.86 11.88 12.61 11.98 12.41 12.17L10.21 14.37C7.38 12.93 5.06 10.62 3.62 7.78L5.82 5.57C6.1 5.31 6.18 4.92 6.07 4.57C5.7 3.45 5.5 2.25 5.5 1C5.5 0.45 5.05 0 4.5 0H1C0.45 0 0 0.45 0 1C0 10.39 7.61 18 17 18C17.55 18 18 17.55 18 17V13.5C18 12.95 17.55 12.5 17 12.5Z" fill="#555555" fill-opacity="0.6"/>
<path d="M2.0293 2.00012H3.5293C3.5993 2.88012 3.7493 3.75012 3.9793 4.58012L2.7793 5.79012C2.3793 4.58012 2.1193 3.32012 2.0293 2.00012V2.00012Z" fill="#ffffff" fill-opacity="1"/>
<path d="M15.9992 15.9699C14.6792 15.8799 13.3992 15.6199 12.1992 15.2099L13.3992 14.0099C14.2492 14.2499 15.1192 14.3999 15.9992 14.4599V15.9699Z" fill="#ffffff" fill-opacity="1"/>
</svg>
