<svg width="25" height="25" viewBox="0 0 25 25" fill="none" xmlns="http://www.w3.org/2000/svg">
<path opacity="0.5" fill-rule="evenodd" clip-rule="evenodd" d="M15.4497 18.005C13.8505 19.1608 11.8937 19.8407 9.7804 19.8407C4.37883 19.8407 0 15.3992 0 9.92035C0 4.44149 4.37883 0 9.7804 0C15.182 0 19.5608 4.44149 19.5608 9.92035C19.5608 12.0639 18.8905 14.0487 17.751 15.6708L24.1771 22.1888C24.8101 22.831 24.8049 23.8584 24.1768 24.4954L24.1499 24.5228C23.5234 25.1582 22.5037 25.1599 21.8758 24.523L15.4497 18.005ZM9.7804 17.5065C13.911 17.5065 17.2595 14.1101 17.2595 9.92035C17.2595 5.73064 13.911 2.3342 9.7804 2.3342C5.64979 2.3342 2.30127 5.73064 2.30127 9.92035C2.30127 14.1101 5.64979 17.5065 9.7804 17.5065Z" fill="#4D4D4D" fill-opacity="0.8"/>
</svg>
