<svg width="16" height="16" viewBox="0 0 16 16" fill="none" xmlns="http://www.w3.org/2000/svg">
<path fill-rule="evenodd" clip-rule="evenodd" d="M10.3709 9.74208H11.0706L15.49 14.1703L14.1704 15.4899L9.74214 11.0705V10.3709L9.50301 10.1229C8.49337 10.9908 7.18261 11.5134 5.75672 11.5134C2.57724 11.5134 0 8.93614 0 5.75668C0 2.57722 2.57724 0 5.75672 0C8.9362 0 11.5134 2.57722 11.5134 5.75668C11.5134 7.18257 10.9909 8.49332 10.123 9.50295L10.3709 9.74208ZM1.77414 5.75678C1.77414 7.96203 3.55426 9.74218 5.75948 9.74218C7.9647 9.74218 9.74482 7.96203 9.74482 5.75678C9.74482 3.55153 7.9647 1.77139 5.75948 1.77139C3.55426 1.77139 1.77414 3.55153 1.77414 5.75678Z" fill="#555555" fill-opacity="0.6"/>
</svg>
