<svg width="88" height="80" viewBox="0 0 88 80" fill="none" xmlns="http://www.w3.org/2000/svg">
<path d="M43.9681 78.0952C28.0157 78.0952 14.365 68.254 8.6507 54.2858H6.58724C12.3809 69.2857 26.984 80 43.9681 80C61.0315 80 75.5553 69.2857 81.3489 54.2858H79.2855C73.5712 68.254 59.9204 78.0952 43.9681 78.0952Z" fill="#555555" fill-opacity="0.5"/>
<path d="M43.9681 1.90475C59.9205 1.90475 73.5712 11.746 79.2855 25.7142H81.349C75.5554 10.7143 60.9522 0 43.9681 0C26.9047 0 12.3809 10.7143 6.58728 25.7142H8.65075C14.365 11.746 28.0158 1.90475 43.9681 1.90475Z" fill="#555555" fill-opacity="0.5"/>
<path d="M11.6667 54.3648H10.635C16.1905 67.3012 29.0476 76.3488 43.9682 76.3488C58.8888 76.3488 71.746 67.3012 77.3015 54.3648H76.2698C70.7936 66.7457 58.3333 75.3965 43.9682 75.3965C29.6032 75.3965 17.1429 66.7457 11.6667 54.3648Z" fill="#555555" fill-opacity="0.5"/>
<path d="M76.2698 25.7143H77.3015C71.746 12.7778 58.8888 3.73019 43.9682 3.73019C29.0476 3.73019 16.1905 12.7778 10.635 25.7143H11.6667C17.1429 13.3334 29.6032 4.68258 43.9682 4.68258C58.4126 4.68258 70.7936 13.3334 76.2698 25.7143Z" fill="#555555" fill-opacity="0.5"/>
<path d="M66.2692 54.365H65.0787C60.4755 61.111 52.6978 65.6348 43.8883 65.6348C35.0788 65.6348 27.301 61.1904 22.6979 54.365H21.5074C26.2693 61.6666 34.4438 66.5872 43.8089 66.5872C53.3327 66.5872 61.5866 61.6666 66.2692 54.365Z" fill="#555555" fill-opacity="0.5"/>
<path d="M21.6664 25.7141H22.8569C27.4601 18.9681 35.2378 14.4443 44.0473 14.4443C52.8568 14.4443 60.6346 18.8887 65.2377 25.7141H66.4282C61.6663 18.4126 53.4918 13.4919 44.1267 13.4919C34.6029 13.4919 26.349 18.3332 21.6664 25.7141Z" fill="#555555" fill-opacity="0.5"/>
<path d="M84.603 26.9838H3.33334C1.50794 26.9838 0 28.4917 0 30.3171V49.7615C0 51.5869 1.50794 53.0949 3.33334 53.0949H84.603C86.4284 53.0949 87.9364 51.5869 87.9364 49.7615V30.3171C87.9364 28.4917 86.4284 26.9838 84.603 26.9838ZM85.3967 49.7615C85.3967 50.1584 85.0792 50.5552 84.603 50.5552H3.33334C2.93651 50.5552 2.53969 50.2377 2.53969 49.7615V30.3171C2.53969 29.9203 2.85715 29.5235 3.33334 29.5235H84.603C84.9999 29.5235 85.3967 29.8409 85.3967 30.3171V49.7615Z" fill="#555555" fill-opacity="0.5"/>
<path d="M3.25406 49.7617L84.6031 49.841C84.6031 49.841 84.6824 49.841 84.6824 49.7617V30.3173L3.33341 30.2379L3.25406 49.7617ZM78.5713 33.6506H79.9999V37.4601C79.9999 37.6188 79.9999 37.7776 79.9205 37.9363C79.8412 38.0157 79.7618 38.095 79.6825 38.095C79.6031 38.095 79.5237 38.0157 79.4444 37.9363C79.365 37.8569 79.365 37.6982 79.365 37.5395L79.2856 36.9839C79.2063 36.4284 79.1269 35.8728 78.9681 35.476C78.8888 35.2379 78.7301 34.9998 78.5713 34.8411V33.6506ZM75.5555 45.2379L75.6349 45.1585C75.7142 45.0792 75.7142 44.8411 75.7142 44.603V33.6506H78.0952V44.603C78.0952 44.8411 78.0951 44.9998 78.1745 45.1585C78.1745 45.2379 78.2539 45.2379 78.2539 45.2379C78.2539 45.2379 78.3332 45.3172 78.492 45.3172C78.6507 45.3966 78.7301 45.5553 78.7301 45.7934C78.7301 45.9522 78.6507 46.1109 78.5713 46.1903C78.492 46.2696 78.4126 46.2696 78.2539 46.2696H75.5555C75.3967 46.2696 75.3174 46.2696 75.238 46.1109C75.1587 46.0315 75.0793 45.8728 75.0793 45.7141C75.0793 45.476 75.1587 45.2379 75.3174 45.2379C75.4761 45.3173 75.5555 45.2379 75.5555 45.2379ZM73.8888 33.6506H75.3174V34.7617C75.1587 34.9204 74.9999 35.1585 74.9206 35.3966C74.7618 35.7934 74.6824 36.349 74.6031 36.9046L74.5237 37.4601C74.5237 37.6188 74.4444 37.7776 74.4444 37.8569C74.365 37.9363 74.2856 38.0157 74.2063 38.0157C74.1269 38.0157 74.0475 37.9363 73.9682 37.8569C73.8888 37.7776 73.8888 37.6188 73.8888 37.3807V33.6506ZM72.2221 43.095V46.349H69.9999V45.3172C70.238 45.2379 70.3968 45.1585 70.5555 45.0792C70.7142 44.9998 70.8729 44.7617 71.0317 44.603C71.1904 44.3649 71.2698 44.1268 71.4285 43.8887C71.5079 43.6506 71.5872 43.3331 71.6666 42.9363C71.6666 42.6982 71.7459 42.6188 71.8253 42.5395C71.9047 42.4601 71.9047 42.4601 71.984 42.4601C72.0634 42.4601 72.1428 42.5395 72.2221 42.6188C72.2221 42.6982 72.2221 42.8569 72.2221 43.095ZM69.9999 33.6506H72.1428V36.9839C72.1428 37.1427 72.1428 37.3014 72.0634 37.3807C71.9841 37.4601 71.984 37.5395 71.8253 37.5395C71.7459 37.5395 71.6666 37.5395 71.6666 37.4601C71.6666 37.3807 71.5872 37.3014 71.5872 37.1427C71.4285 36.4284 71.2698 35.8728 71.0317 35.476C70.7936 35.0792 70.3968 34.8411 69.9999 34.7617V33.6506ZM69.9999 39.3649C70.238 39.2061 70.3968 38.9681 70.4761 38.8093C70.5555 38.5712 70.6349 38.3331 70.7142 38.0157C70.7142 37.7776 70.7936 37.6189 70.7936 37.5395C70.8729 37.4601 70.8729 37.3807 70.9523 37.3807C71.0317 37.3807 71.111 37.4601 71.1904 37.6189C71.1904 37.6982 71.1904 37.8569 71.1904 38.1744V41.7458C71.1904 42.0633 71.1904 42.222 71.1111 42.3808C71.1111 42.4601 71.0317 42.5395 70.873 42.5395C70.7936 42.5395 70.7142 42.4601 70.7142 42.3808C70.6349 42.3014 70.6348 42.1426 70.6348 41.9046C70.5555 41.5077 70.4761 41.1109 70.3968 40.9522C70.3174 40.7141 70.1587 40.5554 69.9999 40.476V39.3649ZM67.0634 34.8411C67.0634 34.7617 66.9841 34.7617 66.9841 34.7617C66.9841 34.7617 66.9047 34.6823 66.746 34.603C66.5872 34.5236 66.5079 34.3649 66.5079 34.1268C66.5079 33.9681 66.5079 33.8887 66.5872 33.73C66.6666 33.6506 66.746 33.5712 66.9047 33.5712H69.4444V46.349H66.9841C66.8253 46.349 66.746 46.349 66.6666 46.1903C66.5872 46.1109 66.5872 45.9522 66.5872 45.7934C66.5872 45.5553 66.6666 45.3966 66.8253 45.3172C66.9047 45.2379 66.984 45.2379 67.0634 45.1585C67.0634 45.1585 67.0634 45.0792 67.1428 45.0792C67.2222 44.9998 67.2222 44.8411 67.2222 44.603V35.2379C67.1428 35.1585 67.1428 34.9998 67.0634 34.8411ZM61.3492 33.6506C61.746 33.6506 62.0635 33.6506 62.3809 33.73C62.7777 33.8093 63.1745 34.0474 63.492 34.4443C63.9682 34.9998 64.2063 35.8728 64.2063 36.9046C64.2063 37.7776 64.0476 38.4919 63.7301 39.0474C63.5714 39.2855 63.4126 39.4442 63.2539 39.603C63.0952 39.7617 62.7777 39.9204 62.4603 40.0792C62.7777 40.1585 63.0158 40.2379 63.2539 40.3966C63.4126 40.476 63.5714 40.6347 63.7301 40.7934C63.8889 40.9522 63.9682 41.1903 64.0476 41.5077C64.1269 41.7458 64.2063 42.0633 64.2063 42.3808V44.2855C64.2063 44.5236 64.2063 44.603 64.2856 44.603C64.2856 44.603 64.365 44.603 64.365 44.5236C64.365 44.5236 64.4444 44.4442 64.4444 44.3649C64.5238 44.1268 64.6031 44.0474 64.6825 44.0474C64.7618 44.0474 64.8412 44.1268 64.8412 44.2061C64.9206 44.2855 64.9206 44.4442 64.9206 44.5236C64.9206 44.6823 64.8412 44.9204 64.7619 45.2379C64.6825 45.476 64.5238 45.7934 64.365 45.9522C64.2063 46.1903 64.0475 46.2696 63.8888 46.4284C63.7301 46.5077 63.492 46.5871 63.2539 46.5871C62.7777 46.5871 62.3809 46.349 62.1428 45.8728C61.9047 45.3966 61.746 44.7617 61.746 43.8887V42.3014C61.746 41.9839 61.746 41.7458 61.746 41.6665C61.746 41.4284 61.6666 41.1903 61.5873 41.0315C61.5079 40.7934 61.3491 40.7141 61.111 40.6347V39.603C61.2698 39.5236 61.4285 39.4442 61.5079 39.3649C61.5872 39.2855 61.6666 39.1268 61.6666 38.968C61.6666 38.8093 61.6666 38.6506 61.6666 38.3331V35.8728C61.6666 35.476 61.5872 35.1585 61.5079 34.9998C61.4285 34.8411 61.2698 34.6824 61.0317 34.5236V33.6506H61.3492ZM58.3333 34.8411C58.3333 34.7617 58.2539 34.7617 58.2539 34.7617C58.2539 34.7617 58.1746 34.6823 58.0158 34.603C57.8571 34.5236 57.7778 34.3649 57.7778 34.1268C57.7778 33.9681 57.7777 33.8887 57.8571 33.73C57.9365 33.6506 58.0159 33.5712 58.1746 33.5712H60.7142V44.5236C60.7142 44.7617 60.7143 44.9204 60.7936 45.0792C60.7936 45.1585 60.873 45.1585 60.873 45.1585C60.873 45.1585 60.9523 45.2379 61.111 45.2379C61.2698 45.3173 61.3492 45.476 61.3492 45.7141C61.3492 45.8728 61.2698 46.0315 61.1904 46.1109C61.1111 46.1903 61.0317 46.1903 60.873 46.1903H58.2539C58.0952 46.1903 58.0158 46.1903 57.9364 46.0315C57.8571 45.9522 57.8571 45.7934 57.8571 45.6347C57.8571 45.3966 57.9365 45.2379 58.0952 45.1585C58.1746 45.0792 58.2539 45.0791 58.3333 44.9998L58.4127 44.9204C58.492 44.841 58.492 44.6823 58.492 44.4442V35.0792C58.4126 35.1585 58.4126 34.9998 58.3333 34.8411ZM55.7936 44.2855C55.6349 44.6823 55.4761 45.0791 55.3174 45.3966C55.0793 45.7934 54.8413 46.1109 54.6032 46.349C54.3651 46.5871 54.0476 46.6665 53.7301 46.6665V45.5553C53.9682 45.5553 54.2857 45.3172 54.6032 44.9998C54.7619 44.8411 54.9206 44.603 55 44.2855C55.1587 43.968 55.2381 43.6506 55.3174 43.2538C55.3174 43.0157 55.3968 42.9363 55.4762 42.8569C55.5555 42.7776 55.5555 42.6982 55.6349 42.6982C55.7143 42.6982 55.7936 42.7776 55.873 42.8569C55.9524 42.9363 55.9523 43.095 55.9523 43.2538C56.0317 43.5712 55.9524 43.8887 55.7936 44.2855ZM53.7301 33.4125C53.8889 33.4919 54.0476 33.4919 54.1269 33.5712C54.2063 33.6506 54.4444 33.73 54.6825 33.8887C54.8412 33.9681 55 34.0474 55.0793 34.0474C55.1587 34.0474 55.2381 33.9681 55.3174 33.8093L55.3968 33.5712C55.4762 33.4125 55.5555 33.3332 55.6349 33.3332C55.7143 33.3332 55.7936 33.4125 55.873 33.4919C55.9524 33.5712 55.9523 33.73 55.9523 33.9681V37.8569C55.9523 38.095 55.9524 38.2538 55.873 38.4125C55.7936 38.4919 55.7143 38.5712 55.6349 38.5712C55.5555 38.5712 55.4762 38.4919 55.3968 38.4125C55.3174 38.3331 55.3174 38.1744 55.2381 37.9363C55.1587 37.4601 55.0793 37.0633 55 36.7458C54.8413 36.1903 54.6825 35.7141 54.4444 35.3173C54.2857 35.0792 54.2063 34.8411 54.0476 34.7617C53.8889 34.603 53.8095 34.5236 53.5714 34.5236V33.4125H53.7301ZM50.3968 37.5395C50.5555 36.7458 50.7936 36.0315 51.0317 35.3966C51.3492 34.7617 51.6667 34.2855 52.0635 33.9681C52.4603 33.5712 52.8571 33.4125 53.1746 33.4125H53.3333V34.5236C53.0952 34.603 52.9365 34.7617 52.8571 34.9998C52.7778 35.2379 52.6984 35.6347 52.6984 36.1109V44.2061C52.6984 44.3649 52.6984 44.5236 52.7777 44.6823C52.7777 44.8411 52.8571 44.9998 52.9365 45.0792C53.0158 45.2379 53.0158 45.3172 53.0952 45.3172C53.1746 45.3966 53.2539 45.3966 53.3333 45.3966V46.5077C52.619 46.5077 52.0635 46.1903 51.5079 45.5553C51.0317 44.9998 50.7143 44.2855 50.4762 43.3331C50.2381 42.3807 50.1587 41.2696 50.1587 39.9998C50.1587 39.2062 50.2381 38.3331 50.3968 37.5395ZM48.4921 43.095V46.349H46.2698V45.3172C46.5079 45.2379 46.6666 45.1585 46.8254 45.0792C46.9841 44.9998 47.1429 44.7617 47.3016 44.603C47.4603 44.3649 47.5397 44.1268 47.6984 43.8887C47.7778 43.6506 47.8571 43.3331 47.9365 42.9363C47.9365 42.6982 48.0159 42.6188 48.0952 42.5395C48.1746 42.4601 48.1746 42.4601 48.254 42.4601C48.3333 42.4601 48.4127 42.5395 48.4921 42.6188C48.4921 42.6982 48.4921 42.8569 48.4921 43.095ZM46.2698 33.6506H48.4127V36.9839C48.4127 37.1427 48.4127 37.3014 48.3333 37.3807C48.254 37.4601 48.254 37.5395 48.0952 37.5395C48.0159 37.5395 47.9365 37.5395 47.9365 37.4601C47.9365 37.3807 47.8571 37.3014 47.8571 37.1427C47.6984 36.4284 47.5397 35.8728 47.3016 35.476C47.0635 35.0792 46.6667 34.8411 46.2698 34.7617V33.6506ZM46.2698 39.3649C46.5079 39.2061 46.6667 38.9681 46.746 38.8093C46.8254 38.5712 46.9047 38.3331 46.9841 38.0157C46.9841 37.7776 47.0635 37.6189 47.0635 37.5395C47.1429 37.4601 47.1429 37.3807 47.3016 37.3807C47.3809 37.3807 47.4603 37.4601 47.5397 37.6189C47.5397 37.6982 47.5397 37.8569 47.5397 38.1744V41.7458C47.5397 42.0633 47.5397 42.222 47.4603 42.3808C47.4603 42.4601 47.3809 42.5395 47.2222 42.5395C47.1428 42.5395 47.0635 42.4601 47.0635 42.3808C46.9841 42.3014 46.9841 42.1426 46.9841 41.9046C46.9047 41.5077 46.8254 41.1109 46.746 40.9522C46.6667 40.7141 46.5079 40.5554 46.3492 40.476V39.3649H46.2698ZM43.4127 34.8411C43.4127 34.7617 43.3333 34.7617 43.3333 34.7617C43.3333 34.7617 43.254 34.6823 43.0953 34.603C42.9365 34.5236 42.8571 34.3649 42.8571 34.1268C42.8571 33.9681 42.8571 33.8887 42.9365 33.73C43.0159 33.6506 43.0952 33.5712 43.2539 33.5712H45.7936V46.349H43.2539C43.0952 46.349 43.0159 46.349 42.9365 46.1903C42.8571 46.1109 42.8571 45.9522 42.8571 45.7934C42.8571 45.5553 42.9365 45.3966 43.0953 45.3172C43.1746 45.2379 43.254 45.2379 43.3333 45.1585C43.3333 45.1585 43.3333 45.0792 43.4127 45.0792C43.4921 44.9998 43.4921 44.8411 43.4921 44.603V35.2379C43.4127 35.1585 43.4127 34.9998 43.4127 34.8411ZM38.5714 33.4125C38.8095 33.4125 38.9683 33.4919 39.127 33.5712C39.2857 33.6506 39.5238 33.8093 39.7619 33.9681C39.8413 34.0474 39.9207 34.0474 39.9207 34.0474C40 34.0474 40 33.9681 40.0793 33.8887L40.1587 33.6506C40.2381 33.4919 40.3175 33.4125 40.3968 33.4125C40.4762 33.4125 40.5555 33.4919 40.6349 33.5712C40.7143 33.73 40.7143 33.8887 40.7143 34.1268V37.222C40.7143 37.3808 40.7143 37.5395 40.6349 37.6982C40.5555 37.7776 40.4762 37.8569 40.3968 37.8569C40.3175 37.8569 40.2381 37.7776 40.2381 37.6982C40.2381 37.6189 40.1587 37.6189 40.1587 37.5395C40.1587 37.4601 40.1587 37.3808 40.0793 37.1427C40 36.8252 40 36.5077 39.8413 36.1903C39.7619 35.8728 39.6032 35.5554 39.5238 35.3173C39.2857 34.8411 38.9683 34.4442 38.5714 34.2855V33.4125ZM35.873 35.7141C36.0317 35.0792 36.2699 34.603 36.5873 34.2855C36.9841 33.8093 37.5397 33.4919 38.0952 33.4125V34.5236C37.8571 34.603 37.6984 34.7617 37.6191 34.9998C37.5397 35.2379 37.4603 35.476 37.4603 35.7934C37.4603 36.1109 37.5397 36.349 37.6191 36.5871C37.6984 36.8252 37.8571 37.0633 38.0952 37.222C38.254 37.3808 38.5715 37.6189 39.127 38.0157C39.4445 38.2538 39.6825 38.4919 39.8413 38.6506C40 38.8093 40.1587 39.1268 40.3175 39.3649C40.7143 40.1585 40.9524 41.0315 40.9524 42.1426C40.9524 42.9363 40.873 43.6506 40.6349 44.3649C40.3968 44.9998 40.0793 45.5553 39.6825 45.9522C39.4444 46.1903 39.2064 46.2696 38.9683 46.4284C38.7302 46.5077 38.4921 46.5871 38.254 46.5871V45.5553C38.5714 45.3966 38.8095 45.2379 38.8889 44.9998C39.0476 44.7617 39.127 44.4442 39.127 44.0474C39.127 43.6506 39.0476 43.2537 38.8095 42.9363C38.6508 42.6982 38.4127 42.4601 38.0159 42.1426C37.5397 41.8252 37.3016 41.5871 37.1429 41.4284C36.9842 41.2696 36.8254 41.1109 36.6667 40.9522C36.0317 40.0792 35.6349 38.9681 35.6349 37.6189C35.6349 36.9839 35.7143 36.2697 35.873 35.7141ZM35.6349 42.3014C35.6349 42.1427 35.6349 41.9839 35.7143 41.8252C35.7936 41.6665 35.873 41.6665 35.9524 41.6665C36.0318 41.6665 36.1111 41.6665 36.1111 41.7458C36.1905 41.8252 36.1905 41.9839 36.1905 42.222C36.2699 42.7776 36.4286 43.2537 36.5079 43.7299C36.6667 44.2061 36.8254 44.603 37.0635 44.9204C37.3016 45.2379 37.5397 45.476 37.7778 45.5553V46.5871C37.4603 46.5871 37.1429 46.4283 36.8254 46.1109C36.6667 46.0315 36.5873 45.9522 36.5873 45.8728C36.508 45.8728 36.5079 45.7934 36.4286 45.7934C36.3492 45.7934 36.2698 45.7934 36.2698 45.8728C36.2698 45.9522 36.1905 46.0315 36.1111 46.1903C36.0317 46.349 35.9524 46.4284 35.873 46.4284C35.6349 46.4284 35.5556 46.1903 35.5556 45.6347V42.3014H35.6349ZM27.2223 33.6506C27.9366 33.6506 28.4921 33.8093 28.8096 34.0474C29.2064 34.3649 29.5238 34.7617 29.7619 35.3173C30 35.8728 30.1587 36.6665 30.1587 37.4601C30.1587 38.4125 30 39.2061 29.7619 39.8411C29.5238 40.476 29.2064 40.8728 28.7302 41.1903C28.3333 41.4284 27.8572 41.5077 27.1429 41.5077V40.476C27.3016 40.3966 27.381 40.3173 27.4604 40.3173C27.5397 40.2379 27.5397 40.1585 27.6191 39.9998C27.6985 39.7617 27.6984 39.4442 27.6984 39.0474V36.0316C27.6984 35.7141 27.6984 35.5554 27.6984 35.3966C27.6984 35.2379 27.6191 35.1585 27.5397 34.9998C27.4603 34.8411 27.3016 34.6823 27.1429 34.6823V33.6506H27.2223ZM24.2858 34.8411C24.2858 34.7617 24.2064 34.7617 24.2064 34.7617C24.2064 34.7617 24.127 34.6823 23.9683 34.603C23.8096 34.5236 23.7302 34.3649 23.7302 34.1268C23.7302 33.9681 23.7302 33.8887 23.8095 33.73C23.8889 33.6506 23.9683 33.5712 24.127 33.5712H26.6667V44.5236C26.6667 44.7617 26.6667 44.9204 26.7461 45.0792C26.7461 45.1585 26.8254 45.1585 26.8254 45.1585C26.8254 45.1585 26.9048 45.2379 27.0635 45.2379C27.2223 45.3173 27.3016 45.476 27.3016 45.7141C27.3016 45.8728 27.2222 46.0315 27.1429 46.1109C27.0635 46.1903 26.9842 46.1903 26.8254 46.1903H24.127C23.9683 46.1903 23.8889 46.1903 23.8095 46.0315C23.7302 45.9522 23.7302 45.7934 23.7302 45.6347C23.7302 45.3966 23.8096 45.2379 23.9683 45.1585C24.0476 45.0792 24.127 45.0791 24.2064 44.9998C24.2064 44.9998 24.2064 44.9204 24.2858 44.9204C24.3651 44.841 24.3651 44.6823 24.3651 44.4442V35.0792C24.3651 35.1585 24.3651 34.9998 24.2858 34.8411ZM19.0476 45.6347C19.127 45.6347 19.2064 45.5553 19.2858 45.476C19.3651 45.3966 19.3651 45.3173 19.4445 45.2379C19.5238 44.9998 19.6032 44.603 19.6032 44.0474V35.7141C19.6032 35.3966 19.6032 35.1585 19.5239 34.9205C19.4445 34.7617 19.4445 34.6823 19.3651 34.603C19.2858 34.5236 19.2064 34.4443 19.127 34.3649V33.3332C19.5239 33.3332 19.8413 33.4919 20.1588 33.73C20.4762 33.9681 20.7937 34.3649 21.0318 34.7617C21.7461 36.0316 22.1429 37.6982 22.1429 39.9204C22.1429 42.0633 21.8254 43.7299 21.1112 44.9998C20.5556 45.9522 19.9207 46.4284 19.127 46.5871V45.6347H19.0476ZM15.8731 37.0633C16.0318 36.1903 16.3492 35.476 16.6667 34.8411C16.9048 34.3649 17.2223 34.0474 17.5397 33.8093C17.8572 33.5712 18.1747 33.4125 18.5715 33.4125V34.4443C18.4127 34.5236 18.254 34.6824 18.1747 34.9205C18.0953 35.0792 18.0953 35.3966 18.0953 35.7934V44.1268C18.0953 44.6823 18.1746 45.0791 18.254 45.3172C18.3334 45.476 18.4127 45.6347 18.6508 45.7141V46.7458C17.8572 46.6665 17.2223 46.1109 16.6667 45.1585C15.9524 43.968 15.635 42.3014 15.635 40.0792C15.5556 38.9681 15.7143 37.9363 15.8731 37.0633ZM12.6191 33.6506H14.0477V37.4601C14.0477 37.6188 14.0477 37.7776 13.9683 37.9363C13.889 38.0157 13.8096 38.095 13.7302 38.095C13.6509 38.095 13.5715 38.0157 13.4921 37.9363C13.4127 37.8569 13.4128 37.6982 13.4128 37.5395L13.3334 36.9839C13.254 36.4284 13.1747 35.8728 13.0159 35.476C12.9366 35.2379 12.7778 34.9998 12.6191 34.8411V33.6506ZM9.6826 45.2379L9.76199 45.1585C9.84136 45.0792 9.84134 44.8411 9.84134 44.603V33.6506H12.2223V44.603C12.2223 44.8411 12.2223 44.9998 12.3016 45.1585C12.3016 45.2379 12.381 45.2379 12.381 45.2379C12.381 45.2379 12.4604 45.3172 12.6191 45.3172C12.7778 45.3966 12.8572 45.5553 12.8572 45.7934C12.8572 45.9522 12.7778 46.1109 12.6985 46.1903C12.6191 46.2696 12.5398 46.2696 12.381 46.2696H9.6826C9.52387 46.2696 9.44453 46.2696 9.36517 46.1109C9.2858 46.0315 9.20643 45.8728 9.20643 45.7141C9.20643 45.476 9.28578 45.2379 9.44451 45.2379C9.60324 45.3173 9.6826 45.2379 9.6826 45.2379ZM8.01596 33.6506H9.44451V34.7617C9.28578 34.9204 9.12706 35.1585 9.04769 35.3966C8.88896 35.7934 8.80958 36.349 8.73021 36.9046L8.65087 37.4601C8.65087 37.6188 8.57152 37.7776 8.57152 37.8569C8.49216 37.9363 8.41275 38.0157 8.33339 38.0157C8.25402 38.0157 8.17467 37.9363 8.0953 37.8569C8.01594 37.7776 8.01596 37.6188 8.01596 37.3807V33.6506Z" fill="#555555" fill-opacity="0.5"/>
<path d="M43.7297 24.127L44.6821 22.3016L46.7455 21.9048L45.317 20.3968L45.6344 18.3333L43.7297 19.2857L41.8249 18.3333L42.1424 20.3968L40.6344 21.9048L42.6979 22.3016L43.7297 24.127Z" fill="#555555" fill-opacity="0.5"/>
<path d="M52.7766 25.3174L53.4116 24.2063L54.6814 23.9681L53.8084 23.0158L53.9671 21.7459L52.7766 22.3808L51.6655 21.7459L51.8243 23.0158L50.9512 23.9681L52.2211 24.2063L52.7766 25.3174Z" fill="#555555" fill-opacity="0.5"/>
<path d="M35.1584 25.3174L35.7139 24.2063L36.9838 23.9681L36.1107 23.0158L36.2695 21.7459L35.1584 22.3808L33.9679 21.7459L34.206 23.0158L33.2536 23.9681L34.5234 24.2063L35.1584 25.3174Z" fill="#555555" fill-opacity="0.5"/>
<path d="M43.7294 55.873L44.6818 57.7778L46.7452 58.0952L45.3167 59.6032L45.6341 61.746L43.7294 60.7936L41.8246 61.746L42.1421 59.6032L40.6341 58.0952L42.6976 57.7778L43.7294 55.873Z" fill="#555555" fill-opacity="0.5"/>
<path d="M52.7768 54.7618L53.4118 55.8729L54.6816 56.111L53.8086 56.984L53.9673 58.2539L52.7768 57.6983L51.6658 58.2539L51.8245 56.984L50.9515 56.111L52.2213 55.8729L52.7768 54.7618Z" fill="#555555" fill-opacity="0.5"/>
<path d="M35.1588 54.7618L35.7143 55.8729L36.9841 56.111L36.1111 56.984L36.2698 58.2539L35.1588 57.6983L33.9683 58.2539L34.2064 56.984L33.254 56.111L34.5238 55.8729L35.1588 54.7618Z" fill="#555555" fill-opacity="0.5"/>
<path d="M21.9861 22.6194C21.8274 22.7781 21.748 22.9368 21.5893 23.0955C21.4305 23.2543 21.2718 23.3336 21.1925 23.3336C21.0337 23.413 20.875 23.413 20.7956 23.413C20.6369 23.413 20.4782 23.3336 20.3988 23.2543L17.9385 21.4289C17.7798 21.3495 17.7004 21.1908 17.621 21.1114C17.5417 20.9527 17.5417 20.794 17.5417 20.6352C17.5417 20.4765 17.6211 20.3178 17.7004 20.1591C17.7798 20.0003 17.8591 19.8416 18.0179 19.6035C18.1766 19.4448 18.256 19.286 18.4147 19.1273C18.5734 18.9686 18.7321 18.8892 18.8115 18.8098C18.9702 18.7305 19.129 18.7305 19.2877 18.7305C19.4465 18.7305 19.6052 18.8098 19.6845 18.8892L20.0814 19.2067L19.8432 19.5241C19.7639 19.6035 19.6845 19.6829 19.5258 19.7622C19.4464 19.7622 19.2877 19.7622 19.2083 19.6829L19.129 19.6035C18.9703 19.5241 18.8115 19.4448 18.7322 19.5241C18.5734 19.6035 18.4941 19.6829 18.3353 19.8416C18.256 20.0003 18.1766 20.0797 18.1766 20.2384C18.1766 20.3972 18.1766 20.5559 18.3353 20.6352L20.7163 22.3813C20.7956 22.4606 20.9544 22.4606 21.1131 22.4606C21.2718 22.3813 21.3512 22.3019 21.5099 22.1432C21.5893 22.0638 21.5893 21.9844 21.6687 21.9051C21.6687 21.8257 21.748 21.7463 21.748 21.667C21.748 21.5876 21.748 21.5083 21.748 21.4289C21.748 21.3495 21.6687 21.3495 21.6687 21.2702L21.5893 21.1908C21.5099 21.1114 21.4305 21.0321 21.4305 20.9527C21.4305 20.8733 21.4305 20.7146 21.5893 20.6352L21.8274 20.3178L22.3036 20.6352C22.4623 20.7146 22.5417 20.8733 22.5417 20.9527C22.621 21.1114 22.621 21.2702 22.5417 21.4289C22.5417 21.5876 22.4623 21.7463 22.3829 21.9051C22.2242 22.3019 22.0655 22.4606 21.9861 22.6194Z" fill="#555555" fill-opacity="0.5"/>
<path d="M25.3197 18.889C25.1609 19.0477 25.0022 19.1271 24.8435 19.2858C24.6848 19.3652 24.526 19.4445 24.3673 19.5239C24.2086 19.5239 24.0498 19.5239 23.8911 19.5239C23.7324 19.5239 23.653 19.4445 23.4943 19.2858L21.4308 17.0636C21.3514 16.9049 21.2721 16.8255 21.1927 16.6668C21.1927 16.508 21.1927 16.3493 21.1927 16.1906C21.2721 16.0318 21.3514 15.8731 21.4308 15.7144C21.5101 15.5556 21.6689 15.3969 21.8276 15.2382C21.9863 15.0795 22.1451 15.0001 22.3038 14.8414C22.4625 14.762 22.6213 14.6826 22.78 14.6033C22.9387 14.6033 23.0975 14.6033 23.2562 14.6033C23.4149 14.6033 23.4943 14.6826 23.653 14.8414L25.7165 17.0636C25.7959 17.2223 25.8752 17.3017 25.9546 17.4604C25.9546 17.6191 25.9546 17.7779 25.9546 17.9366C25.8752 18.0953 25.7959 18.254 25.7165 18.4128C25.6371 18.5715 25.4784 18.7302 25.3197 18.889ZM23.0975 15.4763C23.0181 15.3969 22.9387 15.3969 22.9387 15.3969C22.8594 15.3969 22.78 15.3969 22.7006 15.3969C22.6213 15.3969 22.5419 15.4763 22.4626 15.4763C22.3832 15.5557 22.3038 15.5556 22.3038 15.635C22.2245 15.7144 22.2244 15.7144 22.1451 15.7937C22.0657 15.8731 22.0657 15.9525 22.0657 16.0318C22.0657 16.1112 22.0657 16.1906 22.0657 16.2699C22.0657 16.3493 22.1451 16.4287 22.1451 16.508L24.2085 18.7302C24.2879 18.8096 24.3673 18.8096 24.3673 18.8096C24.4466 18.8096 24.526 18.8096 24.6054 18.8096C24.6847 18.8096 24.7641 18.7302 24.8435 18.7302C24.9229 18.6509 25.0022 18.6509 25.0022 18.5715C25.0816 18.4922 25.0816 18.4921 25.1609 18.4128C25.2403 18.3334 25.2403 18.2541 25.2403 18.1747C25.2403 18.0953 25.2403 18.0159 25.2403 17.9366C25.2403 17.8572 25.1609 17.7779 25.1609 17.6985L23.0975 15.4763Z" fill="#555555" fill-opacity="0.5"/>
<path d="M28.2572 10.635L28.3365 10.7937C28.3365 10.8731 28.4159 10.9525 28.3365 10.9525C28.3365 11.0318 28.3366 11.1112 28.2572 11.1112V11.1905V11.2699L30.4794 14.762C30.4794 14.762 30.4794 14.8413 30.4794 14.9207C30.4794 15.0001 30.4001 15.0001 30.4001 15.0794L30.0032 15.3175C29.9239 15.3969 29.8445 15.3969 29.8445 15.3175C29.7651 15.3175 29.7651 15.2382 29.6857 15.2382C29.6857 15.2382 29.6064 15.1588 29.4477 15.0794C29.2889 15.0001 29.1302 14.8413 28.9714 14.762C28.8127 14.6032 28.5746 14.5239 28.3365 14.3651C28.0984 14.2064 27.9397 14.0477 27.7016 13.9683C27.5429 13.8096 27.3842 13.7302 27.2255 13.6509C27.0667 13.5715 27.0667 13.4922 27.0667 13.4922L28.4159 15.635C28.4159 15.7144 28.4953 15.7144 28.4953 15.7144H28.5746C28.654 15.7144 28.654 15.7144 28.7334 15.7144C28.8127 15.7144 28.8127 15.7937 28.8921 15.8731L28.9714 16.0318L27.781 16.7461L27.7016 16.5874C27.7016 16.508 27.6223 16.4286 27.7016 16.4286C27.7016 16.3493 27.7016 16.2699 27.781 16.2699V16.1906V16.1112L25.7968 13.016C25.7175 13.016 25.7175 13.016 25.6382 13.016C25.5588 13.016 25.5588 13.016 25.4794 13.016C25.4001 13.016 25.4 12.9366 25.3207 12.8572L25.2413 12.6985L26.1143 12.1429C26.1937 12.1429 26.1937 12.0636 26.2731 12.0636C26.3524 12.0636 26.3524 12.0636 26.4318 12.1429C26.4318 12.1429 26.5111 12.2223 26.5905 12.3017C26.7492 12.381 26.8286 12.4604 27.0667 12.6191C27.2254 12.7779 27.4635 12.8572 27.7016 13.016C27.9397 13.1747 28.0984 13.3334 28.3365 13.4922C28.4953 13.6509 28.7334 13.7302 28.8921 13.889C29.0508 13.9683 29.1302 14.0477 29.2096 14.1271L27.8604 11.9049L27.781 11.8255H27.7016C27.6223 11.8255 27.6223 11.8255 27.5429 11.8255C27.4635 11.8255 27.4635 11.7461 27.3841 11.7461L27.3048 11.5874L28.2572 10.635Z" fill="#555555" fill-opacity="0.5"/>
<path d="M33.254 8.49268C33.3333 8.49268 33.3333 8.49268 33.3333 8.57205L33.5714 9.20696L33.3333 9.28632C33.2539 9.36569 33.0952 9.36569 33.0159 9.36569C32.9365 9.36569 32.8571 9.36569 32.8571 9.28632C32.8571 9.20696 32.7778 9.20696 32.6191 9.28632L31.9048 9.60378C31.9048 9.60378 31.8254 9.60378 31.8254 9.68315V9.76252L32.381 11.1117C32.381 11.1117 32.381 11.1911 32.4603 11.1911H32.5397L33.4921 10.7943C33.5714 10.7943 33.6508 10.7943 33.6508 10.8736L33.8095 11.1911C33.8095 11.2704 33.8095 11.2705 33.7301 11.3498L32.7778 11.7466C32.7778 11.7466 32.6984 11.7466 32.6984 11.826V11.9054L33.254 13.2546C33.254 13.3339 33.2539 13.3339 33.3333 13.3339H33.4127C33.4921 13.3339 33.4921 13.3339 33.5714 13.4133C33.6508 13.4133 33.6508 13.4927 33.7301 13.572L33.8095 13.7308L32.4603 14.2863L32.381 14.1276C32.381 14.0482 32.381 13.9688 32.381 13.9688C32.381 13.8895 32.4603 13.8895 32.4603 13.8101V13.7308V13.6514L31.1111 10.3181C31.1111 10.2387 31.0317 10.2387 30.9524 10.2387C30.873 10.2387 30.873 10.2387 30.7937 10.1593C30.7143 10.1593 30.7143 10.08 30.6349 10.0006L30.5555 9.84189L33.0952 8.81013C33.0952 8.49267 33.1746 8.49268 33.254 8.49268Z" fill="#555555" fill-opacity="0.5"/>
<path d="M37.8559 11.5874C37.8559 11.6668 37.8559 11.6668 37.9353 11.6668H38.0146C38.094 11.6668 38.094 11.7462 38.1734 11.7462C38.2527 11.7462 38.2527 11.8255 38.2527 11.9049L38.3321 12.0636L36.9035 12.3811L36.8241 12.2224C36.8241 12.143 36.8241 12.0636 36.8241 12.0636C36.8241 11.9843 36.9035 11.9843 36.9035 11.9049L36.9829 11.8255V11.7462L36.1098 8.17475C36.1098 8.09539 36.1099 8.09538 36.0305 8.09538H35.9511C35.8718 8.09538 35.8718 8.01601 35.7924 8.01601C35.713 8.01601 35.713 7.93666 35.713 7.8573L35.6337 7.69856L37.0622 7.3811L37.1416 7.53984C37.1416 7.61921 37.1416 7.69856 37.1416 7.69856C37.1416 7.77792 37.0622 7.77793 37.0622 7.8573L36.9829 7.93667V8.01601L37.8559 11.5874Z" fill="#555555" fill-opacity="0.5"/>
<path d="M41.4325 6.74609C41.6706 6.74609 41.9087 6.74609 42.0674 6.74609C42.2261 6.74609 42.3849 6.82544 42.5436 6.90481C42.7024 6.98417 42.7817 7.06353 42.7817 7.22226C42.8611 7.38099 42.8611 7.46036 42.8611 7.61909L43.0992 10.3969C43.0992 10.7143 43.0198 10.9524 42.8611 11.1905C42.623 11.4286 42.3055 11.508 41.8293 11.5873L40.0039 11.7461V11.5873C40.0039 11.508 40.0039 11.4286 40.0039 11.3492C40.0039 11.2699 40.0833 11.2699 40.1627 11.2699C40.242 11.2699 40.242 11.1905 40.242 11.1112L39.9246 7.53974C39.9246 7.53974 39.9246 7.46037 39.8452 7.46037C39.8452 7.46037 39.7659 7.46037 39.7659 7.381C39.6865 7.381 39.6865 7.30163 39.6071 7.30163C39.6071 7.22227 39.5278 7.22228 39.5278 7.06355V6.90481L41.4325 6.74609ZM42.0674 7.69846C42.0674 7.53973 41.9881 7.46037 41.9087 7.381C41.8294 7.30164 41.6706 7.30163 41.5119 7.30163L40.8769 7.381C40.7976 7.381 40.7976 7.381 40.7976 7.381V7.46037L41.1151 11.1112V11.1905H41.1944L41.8293 11.1112C41.9881 11.1112 42.1468 11.0318 42.2261 10.9524C42.3055 10.8731 42.3055 10.7143 42.3055 10.5556L42.0674 7.69846Z" fill="#555555" fill-opacity="0.5"/>
<path d="M46.6689 7.30136C46.6689 7.30136 46.5895 7.38073 46.6689 7.30136L46.5102 8.72995C46.5102 8.80931 46.5102 8.80929 46.6689 8.80929L47.7006 8.88866H47.78L47.8594 8.96803V9.36486C47.8594 9.44422 47.78 9.44423 47.7006 9.44423L46.6689 9.36486C46.5895 9.36486 46.5102 9.36486 46.5102 9.44423L46.3514 10.9522C46.3514 11.0315 46.3514 11.0315 46.4308 11.0315L47.3038 11.1109C47.3832 11.1109 47.3832 11.1109 47.3832 11.0315C47.3832 10.9522 47.4625 10.8728 47.5419 10.8728C47.6213 10.8728 47.7006 10.7934 47.8594 10.8728H48.1768L48.0975 11.5077C48.0975 11.5871 48.0974 11.5871 48.0181 11.5871C47.9387 11.5871 47.9387 11.5871 47.8594 11.5871L47.3038 11.5077L45.6371 11.349L45.0816 11.2696V11.1109C45.0816 11.0315 45.0816 10.9521 45.1609 10.8728C45.1609 10.7934 45.2403 10.7934 45.3197 10.7934C45.3991 10.7934 45.4784 10.7141 45.4784 10.6347L45.7959 7.06328V6.98391L45.7165 6.90454C45.6371 6.90454 45.6371 6.82517 45.5578 6.82517C45.5578 6.7458 45.5578 6.66645 45.5578 6.58708V6.42834L48.3355 6.66645C48.4149 6.66645 48.4943 6.66646 48.4943 6.74582L48.5736 6.82517L48.4943 7.53947H48.1768C48.0181 7.53947 47.9387 7.53947 47.8594 7.4601C47.78 7.4601 47.7006 7.38073 47.78 7.30136V7.22199L47.7006 7.14265L46.8276 7.06328C46.7482 7.30137 46.6689 7.30136 46.6689 7.30136Z" fill="#555555" fill-opacity="0.5"/>
<path d="M54.6056 8.3333L54.5263 8.49201C54.5263 8.57138 54.4469 8.65075 54.4469 8.65075C54.3675 8.65075 54.3675 8.73012 54.2882 8.73012H54.2088C54.2088 8.73012 54.2088 8.7301 54.1294 8.80947L53.0183 12.7777C53.0183 12.8571 52.939 12.8571 52.939 12.8571C52.8596 12.8571 52.8596 12.8571 52.7802 12.8571L52.304 12.6984C52.2247 12.6984 52.2247 12.619 52.1453 12.619C52.1453 12.5396 52.1453 12.4603 52.1453 12.3809C52.1453 12.3809 52.1453 12.3015 52.1453 12.0634C52.1453 11.9047 52.066 11.6666 52.066 11.5079C52.066 11.2698 51.9866 11.0317 51.9866 10.7936C51.9866 10.5555 51.9072 10.3174 51.9072 10.0793C51.9072 9.84121 51.8279 9.6825 51.8279 9.52377C51.8279 9.36504 51.8279 9.28566 51.8279 9.28566L51.1136 11.6666C51.1136 11.746 51.1136 11.746 51.1136 11.746C51.1136 11.746 51.1135 11.8253 51.1929 11.8253C51.1929 11.8253 51.2723 11.9047 51.2723 11.9841C51.2723 12.0634 51.2723 12.1428 51.2723 12.1428L51.1929 12.3015L49.8438 11.9047L49.9231 11.746C49.9231 11.6666 50.0024 11.5872 50.0024 11.5872C50.0818 11.5872 50.0818 11.5079 50.1612 11.5079H50.2406C50.2406 11.5079 50.2406 11.5079 50.3199 11.4285L51.3517 7.8571C51.2723 7.8571 51.2723 7.77773 51.1929 7.77773C51.1929 7.77773 51.1136 7.69836 51.1136 7.61899C51.1136 7.53963 51.1136 7.53964 51.1136 7.46028L51.1929 7.22217L52.1453 7.46028C52.2247 7.46028 52.2247 7.53965 52.304 7.53965C52.304 7.53965 52.3834 7.619 52.3834 7.69836C52.3834 7.69836 52.3834 7.77774 52.3834 7.93647C52.3834 8.0952 52.3834 8.25392 52.4628 8.49201C52.4628 8.73011 52.5421 8.9682 52.5421 9.20629C52.5421 9.44439 52.6215 9.76184 52.6215 9.99994C52.6215 10.238 52.7009 10.4761 52.7009 10.6349C52.7009 10.7936 52.7008 10.9523 52.7802 11.0317L53.4945 8.57138C53.4945 8.49202 53.4945 8.49201 53.4945 8.49201C53.4945 8.49201 53.4945 8.41264 53.4152 8.41264C53.4152 8.41264 53.3358 8.33329 53.3358 8.25393C53.3358 8.17456 53.3358 8.09519 53.3358 8.09519L53.4152 7.93647L54.6056 8.3333Z" fill="#555555" fill-opacity="0.5"/>
<path d="M60.1568 10.9525C60.1568 11.0318 60.1568 11.1112 60.1568 11.1906L60.0774 11.3493L59.8393 11.7461L59.4425 11.508C59.3631 11.508 59.2837 11.4287 59.2837 11.3493C59.2837 11.2699 59.2837 11.2699 59.2837 11.1906C59.2837 11.1112 59.2837 11.1112 59.2044 11.0319L58.8075 10.8731H58.7281C58.7281 10.8731 58.6488 10.8731 58.6488 10.9525L56.9822 14.2064V14.2858C56.9822 14.2858 56.9821 14.3652 57.0615 14.3652C57.0615 14.4445 57.1409 14.4445 57.1409 14.5239C57.1409 14.6033 57.1409 14.6826 57.1409 14.6826L57.0615 14.8414L55.7917 14.2064L55.871 14.0477C55.871 13.9683 55.9504 13.9684 56.0298 13.889C56.1091 13.889 56.1885 13.889 56.1885 13.889H56.2679C56.2679 13.889 56.3472 13.889 56.3472 13.8096L58.0139 10.5557V10.4763L57.9345 10.3969L57.6171 10.2382H57.5377C57.5377 10.2382 57.4583 10.2382 57.4583 10.3176C57.4583 10.3969 57.379 10.3969 57.2996 10.3969C57.2202 10.3969 57.1409 10.3969 56.9822 10.3176L56.5853 10.1588L56.744 9.84138L56.8234 9.68264C56.9028 9.60328 56.9028 9.52393 56.9822 9.52393C57.0615 9.52393 57.1409 9.52391 57.2996 9.60327L59.8393 10.8731C59.998 10.8731 60.0774 10.8731 60.1568 10.9525Z" fill="#555555" fill-opacity="0.5"/>
<path d="M60.7143 16.4286C60.7143 16.508 60.6349 16.508 60.7143 16.508V16.5873C60.7143 16.6667 60.7143 16.6667 60.7937 16.7461C60.7937 16.8254 60.7936 16.9048 60.7143 16.9048L60.6349 17.0635L59.4445 16.1905L59.5238 16.0318C59.6032 15.9524 59.6032 15.9524 59.6825 15.9524C59.7619 15.9524 59.8413 15.9524 59.8413 15.9524H59.9206C59.9206 15.9524 60 15.9524 60 15.8731L62.1429 12.9365V12.8572V12.7778C62.1429 12.6984 62.1429 12.6985 62.0635 12.6191C62.0635 12.5397 62.0635 12.4604 62.1429 12.4604L62.2222 12.3016L63.4127 13.1746L63.3334 13.3334C63.254 13.4127 63.254 13.4127 63.1746 13.4127C63.0953 13.4127 63.0159 13.4127 63.0159 13.4127H62.9365C62.9365 13.4127 62.8571 13.4127 62.8571 13.4921L60.7143 16.4286Z" fill="#555555" fill-opacity="0.5"/>
<path d="M64.8435 20.3172C64.8435 20.3966 64.8435 20.3966 64.8435 20.476C64.8435 20.5553 64.8435 20.6347 64.7641 20.6347L64.6054 20.7934L63.5737 19.7617L63.7324 19.603C63.8118 19.5236 63.8117 19.5236 63.8911 19.5236C63.9705 19.5236 64.0498 19.5236 64.0498 19.5236H64.1292H64.2086C64.2879 19.4442 64.288 19.3649 64.3673 19.3649C64.3673 19.2855 64.4467 19.2855 64.4467 19.2061C64.4467 19.1268 64.5261 19.1268 64.5261 19.1268C64.5261 19.0474 64.5261 19.0474 64.5261 18.9681C64.5261 18.9681 64.526 18.8887 64.4467 18.8887L63.7324 18.1744C63.653 18.095 63.5736 18.095 63.4943 18.1744C63.4943 18.1744 63.4149 18.1744 63.4149 18.2538C63.3356 18.2538 63.3356 18.3331 63.2562 18.3331C63.1768 18.4125 63.0975 18.4125 63.0975 18.4919L63.0181 18.5712V18.6506C63.0181 18.73 63.0181 18.7299 63.0181 18.8093C63.0181 18.8887 63.0181 18.9681 62.9388 18.9681L62.78 19.1268L61.7483 18.095L61.907 17.9363C61.9863 17.8569 61.9864 17.8569 62.0657 17.8569C62.1451 17.8569 62.2245 17.8569 62.2245 17.8569H62.3038H62.3832C62.9388 17.4601 63.4943 17.1427 63.9705 16.9046C64.2086 16.7458 64.3673 16.6665 64.5261 16.5871C64.6848 16.5077 64.9229 16.349 65.0022 16.2696C65.161 16.1903 65.2403 16.1109 65.3991 16.0315C65.4784 15.9522 65.5578 15.9522 65.5578 15.9522L65.6371 15.8728V15.7935C65.5578 15.6347 65.5578 15.5554 65.7165 15.3966L65.7959 15.3173L66.5895 16.1109C66.6689 16.1903 66.7483 16.2696 66.7483 16.4284C66.7483 16.5077 66.7482 16.5871 66.6689 16.6665C66.6689 16.6665 66.5895 16.7458 66.5895 16.8252C66.5102 16.9046 66.4308 17.0633 66.3514 17.222C66.2721 17.3807 66.1133 17.5395 66.034 17.7776C65.8752 18.0157 65.7959 18.1744 65.6371 18.4125C65.3197 18.8887 65.0022 19.4442 64.6054 20.0792V20.1585C64.8435 20.3173 64.8435 20.3172 64.8435 20.3172ZM64.8435 18.4919L64.9229 18.5712H65.0022C65.0022 18.5712 65.0022 18.5712 65.0816 18.4919C65.0816 18.4125 65.161 18.3331 65.2403 18.2538C65.3197 18.1744 65.399 18.0157 65.4784 17.9363C65.5578 17.8569 65.6372 17.6982 65.7165 17.5395L66.3514 16.5077L65.3991 17.1426C65.2403 17.222 65.161 17.3014 65.0022 17.3808C64.9229 17.4601 64.7641 17.5395 64.6848 17.6188C64.6054 17.6982 64.526 17.6982 64.4467 17.7776C64.3673 17.7776 64.3673 17.8569 64.3673 17.8569V17.9363C64.3673 17.9363 64.3673 18.0157 64.4467 18.0157L64.8435 18.4919Z" fill="#555555" fill-opacity="0.5"/>
<path d="M68.0181 23.9681L67.4625 24.365C67.3832 24.365 67.3832 24.365 67.3038 24.365C67.2245 24.365 67.2244 24.2856 67.2244 24.2856L67.1451 24.1269L65.6371 21.984L65.7959 21.9047C65.8753 21.8253 65.9546 21.8253 66.034 21.8253C66.1133 21.8253 66.1133 21.8253 66.1927 21.9047C66.1927 21.9047 66.2721 21.9047 66.2721 21.984H66.3514L69.288 19.9205C69.3673 19.9205 69.3673 19.8412 69.3673 19.8412V19.7618C69.3673 19.6824 69.3673 19.6824 69.3673 19.6031C69.3673 19.5237 69.4467 19.4444 69.4467 19.4444L69.6054 19.365L70.399 20.5555L70.2403 20.6348C70.1609 20.7142 70.0816 20.7142 70.0816 20.7142C70.0022 20.7142 69.9229 20.7142 69.9229 20.6348H69.8435H69.7641L66.8276 22.6983L66.7483 22.7777V22.857L67.2244 23.492L67.3038 23.5713H67.3832C67.4625 23.492 67.5419 23.492 67.6213 23.5713C67.7006 23.6507 67.78 23.7301 67.8594 23.8094L68.0181 23.9681Z" fill="#555555" fill-opacity="0.5"/>
<path d="M17.5422 60.3968C17.3835 60.238 17.3041 60.0793 17.2247 59.8412C17.1454 59.6825 17.066 59.5238 17.066 59.365C17.066 59.2063 17.066 59.0476 17.1454 58.9682C17.2247 58.8095 17.3041 58.7301 17.4628 58.6507L19.9231 56.8253C20.0819 56.746 20.1612 56.6666 20.32 56.6666C20.4787 56.6666 20.6374 56.6666 20.7961 56.746C20.9549 56.8254 21.1136 56.9047 21.193 56.9841C21.3517 57.1428 21.4311 57.3015 21.5898 57.4603C21.7485 57.619 21.8279 57.7777 21.9073 58.0158C21.9866 58.1745 22.066 58.3333 22.066 58.492C22.066 58.6507 22.066 58.8095 21.9866 58.9682C21.9072 59.1269 21.8279 59.2063 21.6692 59.2857L21.2724 59.6031L21.0342 59.2857C20.9549 59.2063 20.8755 59.0476 20.8755 58.9682C20.8755 58.8888 20.9549 58.7301 21.0342 58.7301L21.1136 58.6507C21.2723 58.5714 21.3517 58.4127 21.2724 58.2539C21.2724 58.0952 21.193 57.9365 21.1136 57.8571C21.0343 57.6984 20.8755 57.619 20.7168 57.5396C20.5581 57.4603 20.3993 57.4603 20.32 57.619L17.939 59.365C17.8597 59.4444 17.7803 59.5238 17.7803 59.6825C17.7803 59.8412 17.8597 59.9999 17.939 60.0793C18.0184 60.1587 18.0184 60.238 18.0978 60.238C18.1771 60.3174 18.2565 60.3174 18.3358 60.3968C18.4152 60.3968 18.4946 60.3968 18.5739 60.4761C18.6533 60.4761 18.7327 60.4761 18.7327 60.3968L18.812 60.3174C18.8914 60.2381 18.9707 60.238 19.0501 60.238C19.1295 60.238 19.2882 60.3174 19.3676 60.4761L19.6057 60.7936L19.1295 61.1111C18.9708 61.1904 18.8914 61.2698 18.7327 61.2698C18.5739 61.2698 18.4152 61.2698 18.3358 61.1904C18.1771 61.111 18.0184 61.0317 17.939 60.873C17.8597 60.7142 17.7009 60.5555 17.5422 60.3968Z" fill="#555555" fill-opacity="0.5"/>
<path d="M21.5104 64.8409C21.3517 64.6821 21.193 64.5234 21.1136 64.3647C21.0342 64.206 20.9549 64.0472 20.8755 63.8885C20.7961 63.7298 20.7961 63.571 20.8755 63.4123C20.8755 63.2536 20.9549 63.1742 21.1136 63.0155L23.1771 60.7933C23.2564 60.6345 23.4152 60.5552 23.5739 60.5552C23.7326 60.5552 23.8914 60.5552 24.0501 60.5552C24.2088 60.5552 24.3675 60.6345 24.5263 60.7933C24.685 60.8726 24.8437 61.0314 25.0024 61.1901C25.1612 61.3488 25.3199 61.5075 25.3993 61.6663C25.4786 61.825 25.558 61.9837 25.6374 62.1425C25.7168 62.3012 25.7168 62.4599 25.6374 62.6187C25.6374 62.7774 25.558 62.9361 25.3993 63.0155L23.3358 65.2377C23.2564 65.3964 23.0977 65.4758 22.939 65.4758C22.7802 65.4758 22.6215 65.5552 22.4628 65.4758C22.3041 65.4758 22.1453 65.3964 21.9866 65.3171C21.8279 65.079 21.6691 64.9996 21.5104 64.8409ZM24.7644 62.3806C24.8437 62.3012 24.8437 62.2218 24.8437 62.1425C24.8437 62.0631 24.8437 61.9838 24.8437 61.9044C24.8437 61.825 24.7644 61.7456 24.7644 61.6663C24.685 61.5869 24.685 61.5076 24.6056 61.5076C24.5262 61.4282 24.4469 61.4282 24.3675 61.3488C24.2882 61.2695 24.2088 61.2695 24.1294 61.2695C24.0501 61.2695 23.9707 61.2695 23.8914 61.2695C23.812 61.2695 23.7326 61.3488 23.7326 61.4282L21.6692 63.6504C21.5898 63.7298 21.5898 63.8091 21.5898 63.8885C21.5898 63.9679 21.5898 64.0472 21.5898 64.1266C21.5898 64.206 21.6692 64.2853 21.6692 64.3647C21.7485 64.444 21.7485 64.5234 21.8278 64.5234C21.9072 64.6028 21.9866 64.6028 21.9866 64.6822C22.0659 64.7615 22.1453 64.7615 22.2247 64.7615C22.304 64.7615 22.3834 64.7615 22.4628 64.7615C22.5422 64.7615 22.6215 64.6822 22.6215 64.6028L24.7644 62.3806Z" fill="#555555" fill-opacity="0.5"/>
<path d="M30.4752 65.2381L30.3958 65.3968C30.3958 65.4762 30.3164 65.4762 30.2371 65.4762C30.1577 65.4762 30.0783 65.4762 30.0783 65.4762H29.999C29.999 65.4762 29.9196 65.4762 29.9196 65.5556L27.7767 69.0476L27.6974 69.127C27.618 69.127 27.618 69.127 27.5386 69.127L27.1418 68.8889C27.0625 68.8095 27.0625 68.8095 27.0625 68.7302C27.0625 68.6508 27.0625 68.5714 27.0625 68.4921C27.0625 68.4921 27.0625 68.4127 27.1418 68.1746C27.1418 68.0159 27.2212 67.8571 27.2212 67.6191C27.2212 67.381 27.3006 67.1429 27.3006 66.9048C27.3799 66.6667 27.3799 66.4286 27.3799 66.1905C27.3799 65.9524 27.4593 65.7937 27.4593 65.6349C27.4593 65.4762 27.4593 65.3968 27.4593 65.3968L26.1101 67.5397V67.6191V67.6984C26.1101 67.7778 26.1894 67.7778 26.1894 67.8572C26.1894 67.9365 26.1895 68.0159 26.1101 68.0159L26.0307 68.1746L24.8403 67.4603L24.9196 67.3016C24.9196 67.2222 24.999 67.2222 25.0784 67.2222C25.1577 67.2222 25.2371 67.2222 25.2371 67.2222H25.3164C25.3164 67.2222 25.3958 67.2222 25.3958 67.1429L27.3799 64.0476C27.3005 63.9683 27.3006 63.9683 27.3006 63.8889C27.3006 63.8095 27.3006 63.8095 27.3006 63.7302C27.3006 63.6508 27.3005 63.6508 27.3799 63.5714L27.4593 63.4127L28.3323 63.9683C28.4117 63.9683 28.4117 64.0476 28.4117 64.0476C28.4117 64.127 28.4117 64.127 28.4117 64.2064C28.4117 64.2064 28.4117 64.2857 28.3323 64.4445C28.3323 64.6032 28.253 64.7619 28.253 65C28.253 65.2381 28.1736 65.4762 28.0942 65.7143C28.0148 65.9524 28.0148 66.1905 27.9355 66.4286C27.8561 66.6667 27.8561 66.9048 27.8561 67.0635C27.8561 67.2222 27.7767 67.381 27.7767 67.4603L29.1259 65.2381V65.1587V65.0794C29.1259 65 29.0466 65 29.0466 64.9206C29.0466 64.8413 29.0466 64.7619 29.0466 64.7619L29.1259 64.6032L30.4752 65.2381Z" fill="#555555" fill-opacity="0.5"/>
<path d="M34.6054 67.1433C34.6054 67.2226 34.6848 67.2227 34.6054 67.302L34.3673 67.9369L34.1292 67.8576C34.0498 67.7782 33.8911 67.7782 33.8911 67.6988C33.8117 67.6195 33.8118 67.5401 33.8118 67.5401C33.8118 67.4607 33.8118 67.4608 33.653 67.3814L32.9387 67.0639H32.8594C32.8594 67.0639 32.78 67.0639 32.78 67.1433L32.2245 68.4925V68.5719C32.2245 68.5719 32.3038 68.5719 32.3038 68.6512L33.2562 69.0481C33.3356 69.0481 33.3355 69.1274 33.3355 69.2068L33.1769 69.5242C33.1769 69.6036 33.0975 69.6036 33.0181 69.6036L32.0657 69.2068H31.9864C31.9864 69.2068 31.907 69.2068 31.907 69.2861L31.3514 70.6354C31.3514 70.7147 31.3514 70.7147 31.3514 70.7147C31.3514 70.7147 31.3515 70.7941 31.4308 70.7941C31.4308 70.8734 31.5102 70.8734 31.5102 70.9528C31.5102 71.0322 31.5102 71.1115 31.5102 71.1115L31.4308 71.2703L30.0816 70.7147L30.1609 70.556C30.1609 70.4766 30.2403 70.4766 30.3197 70.3972C30.3991 70.3972 30.3991 70.3179 30.4784 70.3179H30.5578C30.5578 70.3179 30.6372 70.3179 30.6372 70.2385L31.9864 66.9052C31.9864 66.8258 31.9864 66.7465 31.907 66.7465C31.8276 66.6671 31.8276 66.6671 31.8276 66.5877C31.8276 66.5084 31.8276 66.429 31.8276 66.3496L31.907 66.1909L34.4467 67.2227C34.526 67.0639 34.6054 67.0639 34.6054 67.1433Z" fill="#555555" fill-opacity="0.5"/>
<path d="M36.5923 71.9845C36.5923 72.0638 36.5923 72.0638 36.5923 72.0638C36.5923 72.0638 36.5922 72.1432 36.6716 72.1432C36.6716 72.1432 36.751 72.2225 36.751 72.3019C36.751 72.3813 36.8304 72.4606 36.751 72.4606L36.6716 72.6194L35.243 72.3019L35.3224 72.1432C35.3224 72.0638 35.4018 71.9845 35.4018 71.9845C35.4811 71.9845 35.4812 71.9051 35.5605 71.9051H35.6399C35.6399 71.9051 35.6399 71.9051 35.6399 71.8257L36.5129 68.2543C36.5129 68.175 36.5129 68.1749 36.5129 68.1749C36.5129 68.1749 36.5129 68.0956 36.4335 68.0956C36.4335 68.0956 36.3542 68.0162 36.3542 67.9368C36.3542 67.8575 36.2748 67.7781 36.3542 67.7781L36.4335 67.6194L37.8621 67.9368L37.7827 68.0956C37.7827 68.1749 37.7033 68.2543 37.7033 68.2543C37.624 68.2543 37.624 68.3337 37.5446 68.3337H37.4652C37.4652 68.3337 37.4653 68.413 37.3859 68.413L36.5923 71.9845Z" fill="#555555" fill-opacity="0.5"/>
<path d="M41.4266 68.4127C41.6646 68.4127 41.9027 68.4921 42.0615 68.5715C42.2202 68.6508 42.3789 68.7302 42.4583 68.8096C42.5377 68.8889 42.6171 69.0477 42.6964 69.127C42.7758 69.2858 42.7758 69.4445 42.7758 69.6032L42.5377 72.381C42.5377 72.6984 42.379 72.9365 42.1409 73.0953C41.9028 73.254 41.5059 73.3334 41.0297 73.3334L39.125 73.1746V73.0159C39.125 72.9366 39.125 72.8572 39.2043 72.7778C39.2043 72.6984 39.2837 72.6984 39.3631 72.6984C39.4424 72.6984 39.4424 72.6191 39.4424 72.5397L39.7599 68.9683V68.8889L39.6805 68.8096C39.6012 68.8096 39.6012 68.7302 39.5218 68.7302C39.5218 68.6508 39.5218 68.5715 39.5218 68.4921V68.3334L41.4266 68.4127ZM41.9028 69.5238C41.9028 69.3651 41.9027 69.2064 41.8234 69.127C41.744 69.0477 41.5853 68.9683 41.4266 68.9683L40.7916 68.8889C40.7123 68.8889 40.7123 68.8889 40.7123 68.8889C40.7123 68.8889 40.7123 68.8889 40.7123 68.9683L40.3948 72.6191V72.6984C40.3948 72.6984 40.3948 72.6984 40.4742 72.6984L41.1091 72.7778C41.2679 72.7778 41.4266 72.7778 41.5059 72.6984C41.5853 72.6191 41.6646 72.4603 41.6646 72.3016L41.9028 69.5238Z" fill="#555555" fill-opacity="0.5"/>
<path d="M45.8748 68.9683C45.8748 69.0476 45.8748 69.0476 45.8748 68.9683L45.9541 70.3968C45.9541 70.4762 46.0335 70.4762 46.1129 70.4762L47.1446 70.3968H47.2239C47.2239 70.3968 47.3033 70.3968 47.3033 70.4762V70.873C47.3033 70.9524 47.3033 70.9524 47.1446 70.9524L46.1129 71.0318C46.0335 71.0318 45.9541 71.1111 45.9541 71.1111L46.1129 72.6191C46.1129 72.6984 46.1922 72.6984 46.1922 72.6984L47.0652 72.6191C47.1446 72.6191 47.1446 72.6191 47.1446 72.5397C47.1446 72.4603 47.1446 72.381 47.2239 72.381C47.3033 72.3016 47.3827 72.3016 47.5414 72.3016H47.8589L47.9382 72.9365C47.9382 73.0159 47.9383 73.0159 47.8589 73.0952C47.7795 73.0952 47.7795 73.1746 47.7002 73.1746L47.1446 73.254L45.4779 73.4127L44.9224 73.4921V73.3334C44.9224 73.254 44.9224 73.1746 44.9224 73.0952C44.9224 73.0159 45.0018 73.0159 45.0811 72.9365C45.1605 72.9365 45.1605 72.8572 45.1605 72.7778L44.843 69.2064C44.843 69.2064 44.843 69.127 44.7636 69.127C44.7636 69.127 44.6843 69.127 44.6843 69.0477C44.6049 69.0477 44.6049 68.9683 44.5256 68.9683C44.5256 68.8889 44.4462 68.8889 44.4462 68.8095V68.6508L47.2239 68.4127C47.3033 68.4127 47.3827 68.4127 47.3827 68.4127C47.462 68.4127 47.4621 68.4921 47.4621 68.4921L47.5414 69.2064H47.2239C47.0652 69.2064 46.9859 69.2064 46.9065 69.2064C46.8271 69.2064 46.7478 69.127 46.7478 69.0477V68.9683H46.6684L45.7954 69.0477C45.9541 68.9683 45.9541 68.9683 45.8748 68.9683Z" fill="#555555" fill-opacity="0.5"/>
<path d="M52.8601 66.9849L52.9395 67.1436C52.9395 67.2229 52.9395 67.3023 52.9395 67.3023C52.9395 67.3817 52.8601 67.3817 52.8601 67.4611C52.8601 67.4611 52.8601 67.5404 52.7807 67.5404V67.6198L53.8919 71.588C53.8919 71.6674 53.8919 71.6674 53.8919 71.7468C53.8919 71.8261 53.8125 71.8261 53.7331 71.8261L53.2569 71.9848C53.1776 71.9848 53.0982 71.9848 53.0982 71.9848C53.0188 71.9848 53.0188 71.9055 52.9395 71.8261C52.9395 71.8261 52.8601 71.7467 52.7807 71.588C52.7014 71.4293 52.5426 71.3499 52.3839 71.1118C52.2252 70.9531 52.0665 70.715 51.9077 70.5563C51.749 70.3182 51.5903 70.1594 51.4316 70.0007C51.2728 69.842 51.1934 69.6833 51.1141 69.6039C51.0347 69.5245 50.9553 69.4452 50.9553 69.4452L51.6696 71.8261C51.6696 71.9055 51.6696 71.9055 51.749 71.9055H51.8284C51.9077 71.9055 51.9077 71.9055 51.9871 71.9848C52.0664 71.9848 52.0665 72.0642 52.0665 72.1436L52.1458 72.3023L50.7966 72.6991L50.7173 72.5404C50.7173 72.461 50.7173 72.3817 50.7173 72.3817C50.7173 72.3023 50.7966 72.3023 50.7966 72.223C50.7966 72.223 50.7966 72.2229 50.876 72.1436V72.0642L49.8443 68.4928C49.7649 68.4928 49.7649 68.4928 49.6855 68.4928C49.6062 68.4928 49.6061 68.4928 49.5268 68.4134C49.4474 68.4134 49.4474 68.3341 49.4474 68.2547L49.368 68.0166L50.3204 67.7785C50.3998 67.7785 50.4792 67.7785 50.4792 67.7785C50.5585 67.7785 50.5585 67.7785 50.5585 67.8579C50.5585 67.8579 50.6379 67.9372 50.7173 68.0166C50.7966 68.096 50.9554 68.2547 51.0347 68.4928C51.1935 68.6515 51.3522 68.8896 51.5109 69.0484C51.6696 69.2865 51.8283 69.4452 51.9871 69.6833C52.1458 69.842 52.3045 70.0801 52.3839 70.1595C52.4633 70.3182 52.5427 70.3975 52.622 70.4769L51.9077 68.0166C51.9077 67.9372 51.9077 67.9372 51.8284 67.9372H51.749C51.6696 67.9372 51.6696 67.9372 51.5902 67.8579C51.5109 67.8579 51.5109 67.7785 51.5109 67.6991L51.4316 67.5404L52.8601 66.9849Z" fill="#555555" fill-opacity="0.5"/>
<path d="M57.5397 64.7625C57.619 64.7625 57.6984 64.8418 57.6984 64.9212L57.7778 65.0799L57.9365 65.3974L57.5397 65.6355C57.4603 65.6355 57.3809 65.7148 57.3016 65.6355C57.2222 65.6355 57.2222 65.5561 57.1428 65.5561C57.1428 65.4767 57.0635 65.4767 56.9841 65.5561L56.5873 65.7148C56.5873 65.7148 56.5079 65.7148 56.5079 65.7942V65.8736L58.1746 69.1275L58.254 69.2069H58.3333C58.4127 69.2069 58.4127 69.2069 58.4921 69.2069C58.5714 69.2069 58.5714 69.2863 58.6508 69.3656L58.7301 69.5243L57.4603 70.1593L57.381 70.0005C57.381 69.9212 57.3016 69.8418 57.381 69.8418C57.381 69.7625 57.4603 69.6831 57.4603 69.6831V69.6037V69.5243L55.7937 66.2704C55.7937 66.2704 55.7936 66.191 55.7143 66.191H55.6349L55.3175 66.3497C55.3175 66.3497 55.2381 66.3498 55.2381 66.4291V66.5085C55.2381 66.5879 55.2381 66.6672 55.2381 66.6672C55.2381 66.7466 55.1588 66.7466 55 66.8259L54.6032 66.9847L54.4445 66.5879L54.3651 66.4291C54.2857 66.3498 54.2857 66.2704 54.3651 66.191C54.4444 66.1117 54.5238 66.0323 54.6032 65.9529L57.1428 64.6831C57.3809 64.7625 57.4603 64.7625 57.5397 64.7625Z" fill="#555555" fill-opacity="0.5"/>
<path d="M62.463 66.5081C62.463 66.5874 62.463 66.5874 62.463 66.5081C62.5424 66.5874 62.6218 66.5874 62.6218 66.5874C62.7011 66.5874 62.7011 66.5874 62.7805 66.5874C62.8599 66.5874 62.9393 66.6668 62.9393 66.6668L63.0186 66.8255L61.8281 67.6985L61.7488 67.5398C61.6694 67.4604 61.6694 67.3811 61.6694 67.3811C61.6694 67.3017 61.6694 67.2223 61.7488 67.2223V67.143V67.0636L59.6059 64.1271L59.5265 64.0477H59.4472C59.3678 64.0477 59.3678 64.0477 59.2884 64.0477C59.2091 64.0477 59.1297 63.9684 59.1297 63.9684L59.0504 63.8097L60.2408 62.9366L60.3202 63.0954C60.3995 63.1747 60.3996 63.2541 60.3996 63.2541C60.3996 63.3335 60.3995 63.4128 60.3202 63.4128V63.4922V63.5716L62.463 66.5081Z" fill="#555555" fill-opacity="0.5"/>
<path d="M67.2245 62.4599C67.3038 62.4599 67.3038 62.4599 67.3832 62.4599C67.4626 62.4599 67.5419 62.4599 67.5419 62.5393L67.7007 62.698L66.6689 63.7298L66.5102 63.571C66.4308 63.4917 66.4308 63.4917 66.4308 63.4123C66.4308 63.333 66.4308 63.3329 66.4308 63.2536V63.1742V63.0949C66.3515 63.0155 66.2721 63.0155 66.2721 62.9361C66.1927 62.9361 66.1928 62.8568 66.1134 62.8568C66.034 62.8568 66.034 62.7774 66.034 62.7774C65.9546 62.7774 65.9546 62.7774 65.8753 62.7774C65.8753 62.7774 65.7959 62.7774 65.7959 62.8568L65.0816 63.571C65.0022 63.6504 65.0022 63.7298 65.0816 63.8091C65.0816 63.8091 65.0816 63.8885 65.161 63.8885C65.161 63.9679 65.2403 63.9679 65.2403 64.0472C65.3197 64.1266 65.3197 64.206 65.3991 64.206L65.4784 64.2853H65.5578C65.6372 64.2853 65.6372 64.2853 65.7166 64.2853C65.7959 64.2853 65.8753 64.2853 65.8753 64.3647L66.034 64.5234L65.0023 65.5552L64.9229 65.3964C64.8435 65.3171 64.8435 65.3171 64.8435 65.2377C64.8435 65.1583 64.8435 65.079 64.8435 65.079V64.9996V64.9202C64.4467 64.3647 64.1292 63.8091 63.8911 63.3329C63.7324 63.0949 63.6531 62.9361 63.5737 62.7774C63.4943 62.6187 63.3356 62.3806 63.2562 62.3012C63.1769 62.1425 63.0975 62.0631 63.0181 61.9044C62.9388 61.825 62.9388 61.7456 62.9388 61.7456L62.8594 61.6663H62.7801C62.6213 61.7456 62.542 61.7456 62.3832 61.5869L62.3038 61.5076L63.0975 60.7139C63.1768 60.6346 63.2562 60.5552 63.415 60.5552C63.4943 60.5552 63.5737 60.5552 63.653 60.6345C63.653 60.6345 63.7324 60.7139 63.8118 60.7139C63.8912 60.7933 64.0499 60.8726 64.2086 60.952C64.3673 61.0314 64.5261 61.1901 64.7642 61.2695C65.0023 61.4282 65.161 61.5075 65.3991 61.6663C65.8753 61.9837 66.4308 62.3012 67.0657 62.698H67.1451C67.1451 62.4599 67.1451 62.4599 67.2245 62.4599ZM65.3197 62.4599L65.3991 62.3806V62.3012C65.3991 62.3012 65.3991 62.3012 65.3197 62.2218C65.2404 62.2218 65.161 62.1425 65.0816 62.0631C65.0022 61.9837 64.8435 61.9044 64.7642 61.825C64.6848 61.7457 64.5261 61.6663 64.3673 61.5869L63.415 60.952L64.0499 61.9837C64.1292 62.1425 64.2086 62.2218 64.288 62.3806C64.3673 62.4599 64.4467 62.6187 64.5261 62.698C64.6055 62.7774 64.6054 62.8568 64.6848 62.9361C64.7641 63.0155 64.7642 63.0155 64.7642 63.0155H64.8435C64.8435 63.0155 64.9229 63.0155 64.9229 62.9361L65.3197 62.4599Z" fill="#555555" fill-opacity="0.5"/>
<path d="M70.1597 57.7779L70.7153 58.1748C70.7946 58.1748 70.7946 58.2541 70.7946 58.3335C70.7946 58.4129 70.7946 58.4128 70.7153 58.4922L70.6359 58.6509L69.128 60.7938L68.9692 60.7144C68.8899 60.6351 68.8105 60.6351 68.8105 60.5557C68.8105 60.4763 68.8105 60.4763 68.8105 60.397V60.3176C68.8105 60.3176 68.8105 60.2382 68.7312 60.2382L65.7946 58.1748C65.7153 58.1748 65.7153 58.1748 65.7153 58.1748H65.6359C65.5565 58.1748 65.5565 58.2541 65.4772 58.2541C65.3978 58.2541 65.3185 58.2541 65.3185 58.1748L65.1597 58.0954L65.9534 56.9049L66.1121 56.9843C66.1915 57.0636 66.1915 57.0637 66.1915 57.143C66.1915 57.2224 66.1915 57.3017 66.1915 57.3017V57.3811C66.1915 57.3811 66.1914 57.4605 66.2708 57.4605L69.2073 59.524H69.2867C69.2867 59.524 69.3661 59.524 69.3661 59.4446L69.7629 58.8097V58.7303C69.7629 58.7303 69.7629 58.6509 69.6835 58.6509C69.6042 58.5716 69.6041 58.4922 69.6041 58.4128C69.6041 58.3335 69.6835 58.2541 69.7629 58.0954L70.1597 57.7779Z" fill="#555555" fill-opacity="0.5"/>
</svg>
